<mxfile host="app.diagrams.net" modified="2022-05-21T10:58:27.898Z" agent="5.0 (Windows NT 10.0; Win64; x64) AppleWebKit/537.36 (KHTML, like Gecko) Chrome/101.0.4951.64 Safari/537.36" etag="tXYj_iSkcHHoVdcZXEIq" version="18.1.1" type="github">
  <diagram id="HV-ngStijfOx4570g---" name="Page-1">
    <mxGraphModel dx="1422" dy="794" grid="1" gridSize="10" guides="1" tooltips="1" connect="1" arrows="1" fold="1" page="1" pageScale="1" pageWidth="827" pageHeight="1169" math="0" shadow="0">
      <root>
        <mxCell id="0" />
        <mxCell id="1" parent="0" />
        <mxCell id="eDPmU3DR6aicLUcgyOJo-13" value="" style="rounded=0;whiteSpace=wrap;html=1;fillColor=#FFFFFF;" vertex="1" parent="1">
          <mxGeometry y="80" width="830" height="480" as="geometry" />
        </mxCell>
        <mxCell id="eDPmU3DR6aicLUcgyOJo-1" value="" style="shape=umlActor;verticalLabelPosition=bottom;verticalAlign=top;html=1;outlineConnect=0;" vertex="1" parent="1">
          <mxGeometry x="40" y="320" width="30" height="60" as="geometry" />
        </mxCell>
        <mxCell id="eDPmU3DR6aicLUcgyOJo-3" value="" style="rounded=0;whiteSpace=wrap;html=1;" vertex="1" parent="1">
          <mxGeometry x="20" y="380" width="130" height="10" as="geometry" />
        </mxCell>
        <mxCell id="eDPmU3DR6aicLUcgyOJo-5" value="" style="rounded=0;whiteSpace=wrap;html=1;" vertex="1" parent="1">
          <mxGeometry x="260" y="380" width="190" height="10" as="geometry" />
        </mxCell>
        <mxCell id="eDPmU3DR6aicLUcgyOJo-6" value="" style="rounded=0;whiteSpace=wrap;html=1;" vertex="1" parent="1">
          <mxGeometry x="650" y="380" width="150" height="10" as="geometry" />
        </mxCell>
        <mxCell id="eDPmU3DR6aicLUcgyOJo-7" value="" style="rounded=0;whiteSpace=wrap;html=1;" vertex="1" parent="1">
          <mxGeometry x="200" y="340" width="30" height="20" as="geometry" />
        </mxCell>
        <mxCell id="eDPmU3DR6aicLUcgyOJo-8" value="" style="rounded=0;whiteSpace=wrap;html=1;" vertex="1" parent="1">
          <mxGeometry x="460" y="460" width="30" height="20" as="geometry" />
        </mxCell>
        <mxCell id="eDPmU3DR6aicLUcgyOJo-9" value="" style="rounded=0;whiteSpace=wrap;html=1;" vertex="1" parent="1">
          <mxGeometry x="530" y="430" width="30" height="20" as="geometry" />
        </mxCell>
        <mxCell id="eDPmU3DR6aicLUcgyOJo-10" value="" style="rounded=0;whiteSpace=wrap;html=1;" vertex="1" parent="1">
          <mxGeometry x="600" y="400" width="30" height="20" as="geometry" />
        </mxCell>
        <mxCell id="eDPmU3DR6aicLUcgyOJo-11" value="" style="rounded=0;whiteSpace=wrap;html=1;fillColor=#0FFF1F;direction=east;" vertex="1" parent="1">
          <mxGeometry x="780" y="280" width="40" height="30" as="geometry" />
        </mxCell>
        <mxCell id="eDPmU3DR6aicLUcgyOJo-12" value="" style="endArrow=none;html=1;rounded=0;entryX=0;entryY=1;entryDx=0;entryDy=0;" edge="1" parent="1" target="eDPmU3DR6aicLUcgyOJo-11">
          <mxGeometry width="50" height="50" relative="1" as="geometry">
            <mxPoint x="780" y="380" as="sourcePoint" />
            <mxPoint x="830" y="330" as="targetPoint" />
          </mxGeometry>
        </mxCell>
        <mxCell id="eDPmU3DR6aicLUcgyOJo-14" value="TASK 1" style="text;strokeColor=none;fillColor=none;html=1;fontSize=24;fontStyle=1;verticalAlign=middle;align=center;" vertex="1" parent="1">
          <mxGeometry x="370" y="120" width="100" height="40" as="geometry" />
        </mxCell>
      </root>
    </mxGraphModel>
  </diagram>
</mxfile>
